<svg xmlns="http://www.w3.org/2000/svg" width="256" height="256" viewBox="0 0 100 100"><rect width="100" height="100" rx="0" fill="#27272a"></rect><path fill="#fff" d="M44.88 57.15L22.99 57.15L22.99 52.35L44.88 52.35L44.88 57.15ZM24.62 60.26L15.82 60.26L29.55 39.78L38.45 39.78L52.30 60.26L43.50 60.26L31.63 41.92L36.40 41.92L24.62 60.26ZM52.78 52.74L52.78 52.74L61.52 52.74Q61.74 53.41 62.83 53.87Q63.92 54.34 65.76 54.58Q67.60 54.82 70.03 54.82L70.03 54.82Q72.43 54.82 73.82 54.67Q75.22 54.53 75.79 54.16Q76.37 53.79 76.37 53.15L76.37 53.15Q76.37 52.54 75.44 52.21Q74.51 51.87 72.14 51.74Q69.78 51.62 65.49 51.62L65.49 51.62Q62.29 51.62 59.97 51.31Q57.65 51.01 56.16 50.35Q54.67 49.70 53.97 48.69Q53.26 47.68 53.26 46.27L53.26 46.27Q53.26 43.84 54.91 42.26Q56.56 40.67 59.90 39.89Q63.25 39.10 68.27 39.10L68.27 39.10Q75.63 39.10 79.52 41.23Q83.41 43.36 83.41 47.36L83.41 47.36L75.12 47.36Q74.96 46.30 73.14 45.74Q71.31 45.18 67.95 45.18L67.95 45.18Q64.62 45.18 63.01 45.57Q61.39 45.95 61.39 46.88L61.39 46.88Q61.39 47.36 61.84 47.65Q62.29 47.94 63.39 48.11Q64.50 48.29 66.51 48.35Q68.53 48.42 71.63 48.42L71.63 48.42Q75.06 48.42 77.46 48.75Q79.86 49.09 81.34 49.76Q82.83 50.43 83.50 51.47Q84.18 52.51 84.18 53.92L84.18 53.92Q84.18 56.35 82.64 57.89Q81.10 59.42 77.78 60.16Q74.45 60.90 69.07 60.90L69.07 60.90Q66.03 60.90 63.49 60.54Q60.94 60.19 58.96 59.50Q56.98 58.82 55.60 57.81Q54.22 56.80 53.50 55.54Q52.78 54.27 52.78 52.74Z"></path></svg>